<svg width="800" height="450" viewBox="0 0 800 450" fill="none" xmlns="http://www.w3.org/2000/svg">
  <rect width="800" height="450" fill="#f8fafc"/>
  <rect x="50" y="50" width="700" height="350" rx="8" fill="#ffffff" stroke="#e2e8f0" stroke-width="2"/>
  
  <!-- Header -->
  <rect x="70" y="70" width="660" height="60" rx="4" fill="#1e293b"/>
  <circle cx="100" cy="100" r="15" fill="#3b82f6"/>
  <rect x="130" y="90" width="120" height="20" rx="4" fill="#64748b"/>
  <rect x="600" y="85" width="80" height="30" rx="15" fill="#10b981"/>
  
  <!-- Product Grid -->
  <rect x="90" y="160" width="150" height="120" rx="6" fill="#f1f5f9"/>
  <rect x="90" y="290" width="100" height="15" rx="4" fill="#cbd5e1"/>
  <rect x="90" y="315" width="80" height="12" rx="4" fill="#94a3b8"/>
  
  <rect x="270" y="160" width="150" height="120" rx="6" fill="#f1f5f9"/>
  <rect x="270" y="290" width="120" height="15" rx="4" fill="#cbd5e1"/>
  <rect x="270" y="315" width="90" height="12" rx="4" fill="#94a3b8"/>
  
  <rect x="450" y="160" width="150" height="120" rx="6" fill="#f1f5f9"/>
  <rect x="450" y="290" width="110" height="15" rx="4" fill="#cbd5e1"/>
  <rect x="450" y="315" width="85" height="12" rx="4" fill="#94a3b8"/>
  
  <!-- Shopping Cart Icon -->
  <g transform="translate(650, 180)">
    <path d="M3 3H5L5.4 5M7 13H17L21 5H5.4M7 13L5.4 5M7 13L4.7 15.3C4.3 15.7 4.6 16.5 5.1 16.5H17M17 13V16.5M9 19.5C9.8 19.5 10.5 20.2 10.5 21S9.8 22.5 9 22.5 7.5 21.8 7.5 21 8.2 19.5 9 19.5ZM20 19.5C20.8 19.5 21.5 20.2 21.5 21S20.8 22.5 20 22.5 18.5 21.8 18.5 21 19.2 19.5 20 19.5Z" stroke="#3b82f6" stroke-width="2" stroke-linecap="round" stroke-linejoin="round" fill="none"/>
  </g>
  
  <text x="400" y="420" text-anchor="middle" fill="#64748b" font-family="Arial, sans-serif" font-size="16" font-weight="600">E-Commerce Platform</text>
</svg>