<svg width="800" height="450" viewBox="0 0 800 450" fill="none" xmlns="http://www.w3.org/2000/svg">
  <rect width="800" height="450" fill="#f8fafc"/>
  <rect x="50" y="50" width="700" height="350" rx="8" fill="#ffffff" stroke="#e2e8f0" stroke-width="2"/>
  
  <!-- Header -->
  <rect x="70" y="70" width="660" height="50" rx="4" fill="#1e293b"/>
  <rect x="90" y="85" width="150" height="20" rx="4" fill="#64748b"/>
  <circle cx="650" cy="95" r="12" fill="#3b82f6"/>
  
  <!-- Kanban Columns -->
  <rect x="90" y="140" width="180" height="220" rx="6" fill="#f1f5f9" stroke="#e2e8f0"/>
  <rect x="100" y="150" width="80" height="15" rx="4" fill="#64748b"/>
  
  <!-- Tasks in To Do -->
  <rect x="100" y="180" width="160" height="40" rx="4" fill="#ffffff" stroke="#e2e8f0"/>
  <rect x="110" y="190" width="100" height="8" rx="2" fill="#374151"/>
  <rect x="110" y="205" width="80" height="6" rx="2" fill="#9ca3af"/>
  
  <rect x="100" y="230" width="160" height="40" rx="4" fill="#ffffff" stroke="#e2e8f0"/>
  <rect x="110" y="240" width="120" height="8" rx="2" fill="#374151"/>
  <rect x="110" y="255" width="90" height="6" rx="2" fill="#9ca3af"/>
  
  <!-- In Progress Column -->
  <rect x="290" y="140" width="180" height="220" rx="6" fill="#fef3c7" stroke="#f59e0b"/>
  <rect x="300" y="150" width="100" height="15" rx="4" fill="#f59e0b"/>
  
  <rect x="300" y="180" width="160" height="40" rx="4" fill="#ffffff" stroke="#f59e0b"/>
  <rect x="310" y="190" width="110" height="8" rx="2" fill="#374151"/>
  <rect x="310" y="205" width="85" height="6" rx="2" fill="#9ca3af"/>
  
  <!-- Done Column -->
  <rect x="490" y="140" width="180" height="220" rx="6" fill="#d1fae5" stroke="#10b981"/>
  <rect x="500" y="150" width="60" height="15" rx="4" fill="#10b981"/>
  
  <rect x="500" y="180" width="160" height="40" rx="4" fill="#ffffff" stroke="#10b981"/>
  <rect x="510" y="190" width="95" height="8" rx="2" fill="#374151"/>
  <rect x="510" y="205" width="75" height="6" rx="2" fill="#9ca3af"/>
  <circle cx="640" cy="200" r="8" fill="#10b981"/>
  <path d="M636 200L639 203L644 196" stroke="#ffffff" stroke-width="2" stroke-linecap="round" stroke-linejoin="round" fill="none"/>
  
  <text x="400" y="420" text-anchor="middle" fill="#64748b" font-family="Arial, sans-serif" font-size="16" font-weight="600">Task Management App</text>
</svg>